<svg width="144" height="144" viewBox="0 0 144 144" fill="none" xmlns="http://www.w3.org/2000/svg">
<circle cx="72" cy="72" r="56" stroke="white" stroke-width="2"/>
<rect x="69" y="129" width="3" height="4" fill="white"/>
<path d="M77 133H64L70.5 144L77 133Z" fill="white"/>
<rect x="111.536" y="112.657" width="3" height="4" transform="rotate(-45 111.536 112.657)" fill="white"/>
<path d="M120.021 109.828L110.828 119.021L123.203 122.203L120.021 109.828Z" fill="white"/>
<rect x="129" y="73" width="3" height="4" transform="rotate(-90 129 73)" fill="white"/>
<path d="M133 65L133 78L144 71.5L133 65Z" fill="white"/>
<rect x="111.657" y="32.2632" width="3" height="4" transform="rotate(-135 111.657 32.2632)" fill="white"/>
<path d="M108.828 23.7781L118.021 32.9705L121.203 20.5961L108.828 23.7781Z" fill="white"/>
<rect x="72" y="15" width="3" height="4" transform="rotate(180 72 15)" fill="white"/>
<path d="M64 11L77 11L70.5 5.68248e-07L64 11Z" fill="white"/>
<rect x="32.2635" y="31.1421" width="3" height="4" transform="rotate(135 32.2635 31.1421)" fill="white"/>
<path d="M23.7783 33.9705L32.9707 24.7781L20.5963 21.5961L23.7783 33.9705Z" fill="white"/>
<rect x="15" y="70" width="3" height="4" transform="rotate(90 15 70)" fill="white"/>
<path d="M11 78L11 65L-2.84124e-07 71.5L11 78Z" fill="white"/>
<rect x="29.1422" y="109.536" width="3" height="4" transform="rotate(45 29.1422 109.536)" fill="white"/>
<path d="M31.9707 118.021L22.7783 108.828L19.5963 121.203L31.9707 118.021Z" fill="white"/>
<path d="M73.488 92.88C69.0293 92.88 65.0693 91.7947 61.608 89.624C58.1467 87.3947 55.4187 84.4907 53.424 80.912C51.4293 77.2747 50.432 73.2853 50.432 68.944C50.432 64.6027 51.4 60.672 53.336 57.152C55.272 53.5733 57.9707 50.728 61.432 48.616C64.8933 46.4453 68.8827 45.36 73.4 45.36C77.6827 45.36 81.4373 46.3573 84.664 48.352C87.9493 50.288 90.4133 52.928 92.056 56.272L86.248 58.12C84.9573 55.7733 83.1387 53.9547 80.792 52.664C78.504 51.3147 75.952 50.64 73.136 50.64C70.0267 50.64 67.2107 51.432 64.688 53.016C62.224 54.6 60.2293 56.8 58.704 59.616C57.2373 62.3733 56.504 65.4827 56.504 68.944C56.504 72.4053 57.2667 75.544 58.792 78.36C60.3173 81.176 62.3413 83.4347 64.864 85.136C67.3867 86.7787 70.1733 87.6 73.224 87.6C75.2187 87.6 77.1547 87.248 79.032 86.544C80.9093 85.84 82.5227 84.9013 83.872 83.728C85.2213 82.496 86.1307 81.176 86.6 79.768L92.496 81.528C91.6747 83.6987 90.3253 85.664 88.448 87.424C86.5707 89.1253 84.3413 90.4747 81.76 91.472C79.1787 92.4107 76.4213 92.88 73.488 92.88Z" fill="white"/>
<line x1="72" y1="33" x2="72" y2="105" stroke="white" stroke-width="2"/>
</svg>
